<?xml version="1.0" standalone="no"?>
<!DOCTYPE svg PUBLIC "-//W3C//DTD SVG 20010904//EN"
 "http://www.w3.org/TR/2001/REC-SVG-20010904/DTD/svg10.dtd">
<svg version="1.0" xmlns="http://www.w3.org/2000/svg"
 width="153.000000pt" height="60.000000pt" viewBox="0 0 153.000000 60.000000"
 preserveAspectRatio="xMidYMid meet">

<g transform="translate(0.000000,60.000000) scale(0.100000,-0.100000)"
fill="#000000" stroke="none">
<path d="M182 538 c-11 -35 -56 -166 -101 -292 -45 -126 -79 -231 -77 -233 3
-3 138 -2 300 2 259 7 296 10 300 24 2 9 12 59 22 111 9 52 22 100 28 106 6 7
42 22 79 34 l68 22 90 -28 91 -28 -7 -123 -7 -123 204 0 c113 0 240 -3 283 -7
l77 -6 -7 44 c-27 167 -95 543 -99 547 -3 2 -20 -2 -38 -11 -18 -8 -112 -41
-208 -72 -96 -32 -219 -72 -273 -90 l-98 -34 -157 58 c-86 32 -201 73 -255 90
-54 18 -119 41 -143 52 -25 10 -47 19 -49 19 -2 0 -12 -28 -23 -62z m373 -133
c55 -21 111 -42 125 -47 23 -9 17 -13 -65 -42 l-89 -31 -24 -97 -24 -96 -156
-4 c-87 -2 -158 -3 -159 -3 -3 2 101 350 116 387 l10 27 83 -28 c46 -16 128
-46 183 -66z m780 53 c7 -31 45 -334 45 -359 0 -18 -8 -19 -135 -19 l-135 0 0
74 c0 130 1 129 -101 161 -49 16 -89 31 -89 35 0 8 367 128 397 129 7 1 15 -9
18 -21z"/>
</g>
</svg>
